<svg width="800" height="600" xmlns="http://www.w3.org/2000/svg" class="pig-svg">
 <g>
  <title>background</title>
  <rect x="-1" y="-1" width="802" height="602" id="canvas_background" fill="#aaffd4"/>
  <g id="canvasGrid" display="none">
   <rect id="svg_1" width="100%" height="100%" x="0" y="0" stroke-width="0" fill="url(#gridpattern)"/>
  </g>
 </g>

 <g>
  <title>Layer 1</title>
  <g id="svg_2">
   <ellipse id="svg_3" fill="#ffdbff" stroke="#000" stroke-width="1.5" cx="540.5" cy="433.5" rx="20" ry="96" class="pig-svg__back-right-leg"/>
   <ellipse id="svg_4" fill="#ffdbff" stroke="#000" stroke-width="1.5" cx="209.5" cy="427.5" rx="20" ry="96" class="pig-svg__front-right-leg"/>
   <ellipse id="svg_5" fill="#ffdbff" stroke="#000" stroke-width="1.5" cx="400" cy="300" rx="239" ry="118" class="pig-svg__body"/>
   <path id="svg_6" fill="#ffdbff" stroke="#000" stroke-width="1.5" d="m139.7925,166.12251l0,-68.00001l34,68.00001l-34,0z" class="pig-svg__right-ear"/>
   <ellipse id="svg_7" fill="#ffdbff" stroke="#000" stroke-width="1.5" cx="182" cy="235" rx="91.5" ry="91.5" class="pig-svg__face"/>
   <ellipse id="svg_8" fill="#ffdbff" stroke="#000" stroke-width="1.5" cx="597.5" cy="432.5" rx="20" ry="96" class="pig-svg__back-left-leg"/>
   <ellipse id="svg_9" fill="#ffdbff" stroke="#000" stroke-width="1.5" cx="281.5" cy="433.5" rx="20" ry="96" class="pig-svg__front-left-leg"/>
   <ellipse id="svg_10" fill="none" stroke="#000" stroke-width="1.5" cx="154.5" cy="256.5" rx="35" ry="35" class="pig-svg__nose"/>
   <path id="svg_11" fill="none" stroke="#000" stroke-width="1.5" stroke-opacity="null" fill-opacity="null" d="m608.5,265.5c0,0 0,0 0,-1c0,-1 0,-2 0,-3c0,-1 0,-2 0,-3c0,-1 0.16016,-2.01291 0,-3c-0.50653,-3.12144 -2,-4 -2,-6c0,-3 0,-4 0,-6c0,-1 0,-2 0,-3c0,-2 1,-3 1,-5c0,-1 0.69342,-2.4588 2,-3c0.92389,-0.38269 1.07611,-0.61731 2,-1c1.30658,-0.5412 2,-2 3,-2c1,0 1.61731,-0.07613 2,-1c0.5412,-1.30656 2,-2 3,-3c1,-1 2.29291,-1.29289 3,-2c0.70709,-0.70711 2,-2 3,-2c1,0 2.07611,-0.38269 3,0c1.30658,0.5412 2.48627,0.82375 3,3c0.22974,0.97325 1.48627,1.82375 2,4c0.45953,1.9465 1,2 1,4c0,1 0.4588,1.69344 1,3c0.38269,0.92387 0.4588,1.69344 1,3c0.38269,0.92387 -1.41418,3.58578 0,5c0.70709,0.70711 1,1 1,3c0,1 0,3 0,4c0,1 0.70709,2.29289 0,3c-0.70709,0.70711 -2.21167,0.28587 -5,-2c-1.09369,-0.89659 -3.48627,-2.82375 -4,-5c-0.22974,-0.97325 -1,-3 -2,-5c-1,-2 -2,-5 -2,-7c0,-1 -0.1731,-1.85274 -1,-3c-1.30743,-1.814 -1,-3 -1,-4c0,-1 0,-2 0,-3c0,-1 1,-2 1,-3c0,-1 0.29291,-2.29289 1,-3c0.70709,-0.70711 1.4588,-2.69344 2,-4c0.38269,-0.92387 0.07611,-1.61731 1,-2c1.30658,-0.5412 0.29291,-2.29289 1,-3c0.70709,-0.70711 2.4588,0.30656 3,-1c0.38269,-0.92387 1,-1 2,-1c1,0 2,0 3,0c1,0 1.82373,0.48625 4,1c0.97327,0.22975 1.69342,0.4588 3,1c0.92389,0.38269 1.85272,1.1731 3,2c1.81397,1.30745 3.48627,1.82375 4,4c0.22974,0.97325 0.49347,3.87856 1,7c0.16016,0.98709 1,3 1,4c0,2 0,3 0,4c0,1 0.70709,2.29289 0,3c-0.70709,0.70711 -2.07611,0.38269 -3,0c-1.30658,-0.5412 -2,-1 -3,-1c-1,0 -2,-1 -3,-1c-1,0 -1,-1 -1,-2c0,-1 0,-2 0,-4c0,-2 0,-3 0,-4c0,-1 0,-2 0,-3c0,-1 0,-2 0,-3c0,-1 0,-2 0,-3c0,-1 0.29291,-1.29289 1,-2c0.70709,-0.70711 1,-1 2,-1c1,0 1.02673,-0.77025 2,-1c2.17627,-0.51375 3.85272,-3.1731 5,-4c1.81397,-1.30745 3.1731,-0.85274 4,-2c1.30743,-1.814 2.4588,-1.69344 3,-3c0.38269,-0.92387 1,-1 2,-1l1,0" class="pig-svg__tail"/>
   <path id="svg_12" fill="none" stroke="#000" stroke-width="1.5" stroke-opacity="null" fill-opacity="null" d="m165.5,251.5c0,-1 0,0 0,1c0,1 0,2 0,3c0,1 0,2 0,3c0,1 -1,3 0,3c1,0 0,-2 0,-3c0,-1 0.70711,-2.29291 0,-3c-0.70711,-0.70711 -1.29289,-0.29289 -2,-1c-0.70711,-0.70711 -1,-1 -2,-1c-1,0 -3,-1 -3,0c0,1 2,0 3,0c1,0 2,0 3,0c1,0 2.29289,0.70711 3,0c0.70711,-0.70711 0.70711,-2.29289 0,-3c-0.70711,-0.70711 0,-2 -1,-2c-1,0 0,2 0,4c0,1 1.41422,3.58578 0,5c-0.70711,0.70709 -0.29289,2.29291 -1,3c-0.70711,0.70709 -0.07613,1.61731 -1,2c-1.30656,0.5412 -2.14429,-0.93414 -3,-3c-1.21014,-2.92157 -1.4588,-3.69344 -2,-5c-0.38269,-0.92387 -1.29289,-1.29289 -2,-2c-0.70711,-0.70711 0.29289,-2.70711 1,-2c0.70711,0.70711 1,1 2,2c1,1 2.07613,1.61731 3,2c1.30656,0.5412 1,2 1,3l1,0l0,1" class="pig-svg__left-nostril"/>
   <path id="svg_13" fill="none" stroke="#000" stroke-width="1.5" stroke-opacity="null" fill-opacity="null" d="m140.5,258.5c-1,0 -1,-1 -1,-2c0,-2 0,-4 0,-5c0,-3 0,-5 0,-7c0,-1 -0.29289,0.29289 -1,1c-0.70711,0.70711 -0.61731,1.07613 -1,2c-0.5412,1.30656 -1,2 -1,3c0,1 -0.92387,2.61731 0,3c1.30656,0.5412 2.4588,-0.69344 3,-2c0.38269,-0.92387 0.29289,-1.29289 1,-2c0.70711,-0.70711 -0.29289,-2.70711 -1,-2c-0.70711,0.70711 -0.61731,1.07613 -1,2c-0.5412,1.30656 -1.29289,1.29289 -2,2c-0.70711,0.70711 -2,0 -3,0c-1,0 -1.92387,0.38269 -1,0c1.30656,-0.5412 2,-2 3,-2c1,0 2,0 3,0c1,0 2,0 2,1c0,1 1,1 1,2c0,1 0,2 0,3l0,1l-1,0l-1,0" class="pig-svg__right-nostril"/>
   <ellipse id="svg_14" fill="#000000" stroke="#000" stroke-width="1.5" stroke-opacity="null" cx="204.5" cy="193.5" rx="7" ry="7" class="pig-svg__left-eye"/>
   <ellipse id="svg_15" fill="#000000" stroke="#000" stroke-width="1.5" stroke-opacity="null" cx="122.5" cy="182.5" rx="7" ry="7" class="pig-svg__right-eye"/>
   <path id="svg_16" fill="#ffdbff" stroke="#000" stroke-width="1.5" d="m206.7925,175.1225l0,-68l34,68l-34,0z" class="pig-svg__left-ear"/>
  </g>
  <path opacity="0" id="svg_17" d="m182.547505,182.022825l10.425311,-10.425311l11.074646,11.074555l11.074646,-11.074555l10.425409,10.425311l-11.074649,11.074646l11.074649,11.074646l-10.425409,10.425408l-11.074646,-11.074649l-11.074646,11.074649l-10.425311,-10.425408l11.074555,-11.074646l-11.074555,-11.074646z" stroke-width="1.5" stroke="#000" fill="#000000"/>
  <path opacity="0" id="svg_19" d="m100.54751,171.02282l10.42531,-10.42531l11.07464,11.07456l11.07465,-11.07456l10.42541,10.42531l-11.07465,11.07465l11.07465,11.07465l-10.42541,10.4254l-11.07465,-11.07464l-11.07464,11.07464l-10.42531,-10.4254l11.07455,-11.07465l-11.07455,-11.07465z" stroke-width="0" stroke="#000" fill="#000000"/>
  <path opacity="0" id="svg_20" d="m529.257008,-140.710757l-72.506776,72.484804l71.610423,24.901967l-66.188891,77.818676l-26.723122,-13.140864l18.953775,75.008644l75.32414,-32.725817l-31.803061,-13.679236l86.359287,-111.772776l-78.942139,-20.258049l76.231406,-75.530306l-43.483842,-11.340482l47.360419,-48.003457l-17.398208,-0.68988l-73.493996,65.855586l34.700578,11.071212l0.000007,-0.000021z" stroke-opacity="null" stroke-width="0" stroke="#000" fill="#1b09e5"/>
  <path opacity="0" id="svg_21" d="m364.191962,245.374808c-1.742961,10.116116 -6.19509,19.784191 -6.494885,30.215856c0.398894,6.039917 -3.554199,9.28424 -8.965871,9.170014c-5.820424,6.184326 0.718416,15.957981 7.304081,18.454408c6.721045,4.624379 15.058973,-0.542874 21.716777,3.605377c8.840458,7.083691 12.531146,19.643227 9.481196,30.653972c-3.032467,9.089397 12.490552,5.783664 6.65182,-1.482193c-4.509476,-7.101815 8.50069,-4.753816 5.170008,1.988701c-0.629367,5.412369 3.894805,7.164215 1.881399,12.407813c5.24526,3.08294 -0.439693,4.809123 -3.634549,5.391227c-7.481617,3.822926 1.353279,-6.848166 -4.573652,-10.004469c-5.42758,1.209114 -1.749838,10.525521 -3.612831,9.449487c-3.835287,-3.078401 -3.832457,-14.587671 -10.269368,-7.078008c-2.136347,-9.253228 1.761602,-18.890094 -1.241149,-28.089605c1.230049,-6.870316 -9.352374,-9.240076 -8.013888,-1.271662c0.533586,12.161484 -3.069194,24.298747 -1.001458,36.400311c2.847861,7.464144 10.812872,10.826649 15.811938,16.586519c4.105594,4.441186 9.428139,9.189536 15.818266,7.791293c7.247741,-0.322035 14.508845,-1.008156 21.723883,0.171351c9.075051,0.293392 16.002728,-7.059469 23.747364,-10.836463c9.104424,-7.410284 7.670959,-20.646597 6.763364,-31.189964c-1.112888,-6.509372 1.329208,-13.021707 0.874101,-19.470151c-6.563796,-8.232229 -11.949094,6.237561 -10.079302,12.454265c-0.000458,7.82014 1.464636,17.893818 -5.812967,22.98793c-6.005983,-0.155236 -11.721945,2.080925 -17.774253,0.911727c-4.911103,2.989423 -12.865883,2.912659 -14.48694,-4.203756c-0.647194,-6.319848 2.146475,-12.945567 -1.649345,-18.843741c3.335086,2.944313 9.153778,-2.542904 5.910968,4.05805c-3.955295,5.373165 3.34919,13.65286 6.098989,5.721982c0.912307,-5.32116 -3.946234,-12.38348 4.040181,-11.243456c1.628707,1.87693 -5.561898,15.006023 4.267203,11.688158c7.007616,-1.573415 -1.246711,-12.841143 8.242967,-12.880298c4.592661,-5.542215 3.356091,-15.930383 10.381214,-20.134876c7.832967,-5.433666 20.062877,-1.510774 25.653575,-10.712659c4.765293,-4.708941 2.522765,-17.760577 -5.695637,-13.435935c-10.270351,1.026261 -2.119395,-14.25853 -2.405954,-19.98591c2.419871,-4.988346 -2.938749,-15.488805 -1.093535,-16.602856c3.486585,5.467967 4.735341,11.863355 3.985507,18.253568c-0.064435,5.41911 -2.306481,20.105633 5.043418,11.052077c2.488137,-6.309533 1.764485,-13.456212 3.537157,-20.020551c3.419018,-14.172236 -2.702805,-28.352351 -9.527491,-40.35615c-5.812472,-6.462215 -13.19157,-11.613657 -20.121104,-16.685681c-11.655724,-4.493445 -24.525449,-5.298428 -36.835678,-4.172263c-10.88889,1.934655 -22.403852,3.974328 -31.078236,11.584408c-8.453931,5.105935 -16.550346,11.887404 -19.892532,21.698409c-2.912574,7.90375 -8.012862,15.952744 -5.694829,24.732671c2.216889,7.319049 1.041099,14.920144 1.400038,22.400959c3.779134,8.549831 7.3471,-4.375002 6.993433,-8.650106c0.209214,-8.106978 4.381921,-15.282831 7.456611,-22.479765l-0.000006,-0.000012zm69.412454,17.392448c7.77153,0.570825 17.611467,5.006885 17.823552,14.255191c1.181703,9.280919 -6.134323,18.277103 -15.510001,17.366965c-8.516122,-0.717032 -13.962669,-8.25731 -13.397176,-16.734724c-2.851173,-6.078399 1.585754,-12.588439 7.54052,-13.98576c1.154749,-0.398015 2.3417,-0.695934 3.543105,-0.901678l0,0.000006zm-52.444754,0.790495c9.015551,-1.643495 19.27295,4.089327 19.303053,14.318555c0.846743,9.888957 -9.395888,11.826401 -16.382962,14.303733c-4.834735,3.199868 -9.856882,0.220555 -13.874169,-3.003417c-5.212231,-5.592179 -3.680234,-16.861261 1.823352,-21.965966c2.668792,-2.024572 5.972538,-2.820441 9.130727,-3.652905zm30.84988,26.087924c4.364535,6.148979 9.604191,15.525765 3.959904,22.504629c-5.010582,4.119015 -5.642284,-5.858858 -10.901371,-1.159694c-4.933635,-4.429023 -0.383293,-13.441643 3.07843,-17.940987c1.140964,-1.295643 2.446614,-2.436303 3.863037,-3.403949z" stroke-opacity="null" stroke-width="0" stroke="#000" fill="#0f771d"/>
  <path opacity="0" stroke="#000" id="svg_22" d="m18.806043,347.450916c-12.592775,2.318923 -16.775185,12.866035 -16.938383,18.896752c6.92261,0.500978 11.260628,-3.411966 13.025438,-5.700527c2.888216,-3.248769 3.58655,-7.822094 3.912945,-13.196226zm1.548479,20.832351c-9.104903,0 -14.190592,3.719385 -16.691689,3.761133c-2.880626,-0.223922 -11.260628,-3.59414 -16.148962,-3.647274c-17.116761,0.508569 -22.012686,19.109289 -21.80015,27.105966c1.392872,30.609019 20.073293,38.51461 23.124707,39.254692c2.451758,0.482002 10.706515,-3.776314 16.775185,-3.578959c6.630373,0.690743 11.268218,3.434738 13.924922,3.244974c3.374013,-0.235308 14.357585,-9.108698 17.670874,-22.798311c-6.672121,-5.643597 -10.793807,-10.763444 -11.16195,-15.613826c-0.174583,-2.197473 3.131115,-14.611869 8.395183,-18.099741c0.759058,-4.288678 -7.059241,-9.731125 -13.192431,-9.609676c-0.303623,-0.011386 -0.599656,-0.018976 -0.895689,-0.018976z" stroke-opacity="null" stroke-width="0" fill="#e81414"/>
 </g>
</svg>